# xmcd CD database file
# Copyright (C) 1993-1996 Ti Kan
#
# Track frame offsets:
#  150
#  17588
#  31380
#  48893
#  60089
#  80227
#  93692
#  112092
#  126466
#  138093
#  149495
#  170344
#
# Disc length: 2429 seconds
#
# Revision: 1
# Processed by: cddbd v1.5.2PL0 Copyright (c) Steve Scherf et al.
# Submitted via: Advanced CD Ripper Pro 2.0
#
DISCID=a4097b0c
DTITLE=John Fogerty - Rides again
DYEAR=2006
DGENRE=other
TTITLE0=Paradise
TTITLE1=Never ending song of love
TTITLE2=Track03
TTITLE3=Track04
TTITLE4=Track5
TTITLE5=Track06
TTITLE6=Track07
TTITLE7=Track08
TTITLE8=Track09
TTITLE9=Track10
TTITLE10=Track11
TTITLE11=Track12
EXTD=
EXTT0=
EXTT1=
EXTT2=
EXTT3=
EXTT4=
EXTT5=
EXTT6=
EXTT7=
EXTT8=
EXTT9=
EXTT10=
EXTT11=
PLAYORDER=
